<?xml version="1.0" standalone="no"?>
<!DOCTYPE svg PUBLIC "-//W3C//DTD SVG 20010904//EN"
 "http://www.w3.org/TR/2001/REC-SVG-20010904/DTD/svg10.dtd">
<svg version="1.0" xmlns="http://www.w3.org/2000/svg"
 width="512.000000pt" height="512.000000pt" viewBox="0 0 512.000000 512.000000"
 preserveAspectRatio="xMidYMid meet">

<g transform="translate(0.000000,512.000000) scale(0.100000,-0.100000)"
fill="#000000" stroke="none">
<path d="M2270 4863 c-252 -254 -307 -321 -394 -475 l-27 -47 -52 21 c-77 31
-132 47 -232 70 -79 18 -135 21 -467 25 l-377 5 -32 -31 -31 -32 5 -377 c5
-391 8 -423 55 -582 11 -36 29 -89 40 -117 l21 -52 -47 -27 c-154 -87 -221
-142 -475 -394 -235 -234 -257 -258 -257 -289 0 -31 20 -55 222 -259 246 -247
334 -323 468 -401 l89 -53 -21 -51 c-11 -29 -29 -81 -40 -117 -47 -159 -50
-191 -55 -582 l-5 -377 31 -32 32 -31 377 5 c332 4 388 7 467 25 100 23 155
39 232 70 l52 21 27 -47 c87 -154 142 -221 394 -474 234 -236 258 -258 289
-258 31 0 55 20 259 222 247 246 323 334 401 468 l53 89 51 -21 c77 -31 132
-47 232 -70 79 -18 135 -21 467 -25 l377 -5 32 31 31 32 -5 377 c-4 332 -7
388 -25 467 -23 100 -39 155 -70 232 l-21 52 47 27 c154 87 221 142 475 394
269 268 272 272 243 328 -8 15 -124 135 -258 267 -238 235 -310 295 -460 379
l-47 27 21 52 c31 77 47 132 70 232 18 79 21 135 25 467 l5 377 -31 32 -32 31
-377 -5 c-332 -4 -388 -7 -467 -25 -100 -23 -155 -39 -232 -70 l-52 -21 -27
47 c-87 154 -142 221 -394 475 -236 238 -258 257 -290 257 -32 0 -54 -19 -290
-257z m491 -140 c202 -206 265 -281 326 -391 l36 -65 -25 -21 c-14 -12 -52
-40 -85 -64 -165 -118 -344 -345 -424 -537 -12 -30 -26 -55 -29 -55 -3 0 -17
26 -30 58 -32 75 -91 179 -146 255 -60 83 -201 225 -276 279 -34 23 -72 52
-86 64 l-25 21 36 65 c20 36 58 94 84 129 48 63 429 459 443 459 4 0 94 -89
201 -197z m-1266 -448 c44 -8 103 -21 130 -28 45 -13 156 -55 163 -61 1 -2 -7
-38 -18 -80 -58 -228 -36 -570 50 -770 11 -27 19 -51 17 -53 -2 -2 -26 6 -53
17 -203 87 -539 109 -771 50 -42 -11 -77 -19 -79 -18 -6 7 -48 118 -61 163
-36 130 -43 208 -43 503 l0 292 293 0 c213 0 314 -4 372 -15z m2795 -277 c0
-295 -7 -373 -43 -503 -13 -45 -55 -156 -61 -163 -2 -1 -37 7 -79 18 -232 59
-568 37 -771 -50 -27 -11 -51 -19 -53 -17 -2 2 6 26 17 53 87 203 109 539 50
771 -11 42 -20 77 -20 78 0 4 138 55 180 66 116 31 184 37 478 38 l302 1 0
-292z m-2160 -57 c152 -153 245 -309 303 -511 33 -112 47 -261 47 -489 l0
-186 -141 140 c-77 77 -170 176 -205 220 -82 101 -166 268 -201 400 -24 89
-27 118 -27 270 0 107 4 190 13 225 23 99 17 94 69 58 26 -17 90 -74 142 -127z
m1067 88 c12 -46 16 -114 16 -239 1 -158 -2 -184 -25 -272 -32 -115 -88 -240
-155 -340 -27 -40 -125 -151 -220 -248 l-172 -175 -1 186 c0 102 5 235 11 294
32 318 189 601 448 807 40 32 75 57 78 54 2 -2 11 -33 20 -67z m-1595 -842
c114 -30 239 -86 340 -154 40 -27 151 -125 248 -220 l175 -172 -190 0 c-300
-1 -436 19 -605 86 -192 77 -354 200 -492 372 -67 83 -67 82 27 100 95 18 122
19 265 16 104 -2 157 -9 232 -28z m2431 9 c33 -8 61 -16 62 -18 9 -9 -103
-143 -176 -212 -196 -185 -428 -291 -690 -315 -63 -6 -195 -11 -294 -11 l-180
1 175 172 c219 215 328 290 514 352 131 44 216 55 381 50 83 -3 176 -12 208
-19z m-3147 -113 c78 -107 101 -135 176 -210 119 -121 271 -225 411 -283 31
-13 57 -27 57 -30 0 -3 -26 -17 -57 -30 -191 -79 -417 -258 -535 -423 -24 -33
-52 -71 -64 -85 l-21 -25 -65 36 c-110 62 -185 124 -393 329 l-200 197 155
156 c197 199 299 287 407 353 47 28 90 52 94 52 4 0 20 -17 35 -37z m3477 -15
c108 -66 209 -154 407 -352 l155 -156 -155 -156 c-198 -198 -299 -286 -407
-351 -47 -29 -89 -53 -93 -53 -4 0 -37 39 -73 88 -145 194 -350 359 -552 443
-30 12 -55 26 -55 29 0 3 26 17 58 30 200 83 405 248 549 443 36 48 69 87 73
87 4 0 46 -24 93 -52z m-2173 -761 c-97 -95 -208 -193 -248 -220 -100 -67
-225 -123 -340 -155 -88 -23 -114 -26 -272 -25 -125 0 -193 4 -239 16 -34 9
-65 17 -67 19 -8 9 104 143 177 212 146 137 301 225 494 281 114 32 220 42
470 43 l200 1 -175 -172z m1040 163 c267 -27 496 -132 689 -314 67 -64 185
-205 177 -213 -2 -2 -33 -11 -67 -20 -46 -12 -114 -16 -239 -16 -158 -1 -184
2 -272 25 -115 32 -240 88 -340 155 -40 27 -151 125 -248 220 l-175 172 190 0
c105 1 233 -4 285 -9z m-760 -565 c-25 -278 -127 -506 -314 -704 -64 -67 -205
-185 -213 -177 -2 2 -11 33 -20 67 -12 46 -16 114 -16 239 -1 158 2 184 25
272 32 115 88 240 155 340 26 40 125 151 218 246 l170 174 3 -168 c2 -93 -2
-223 -8 -289z m563 38 c113 -169 174 -355 184 -553 5 -113 -7 -258 -28 -333
l-10 -37 -47 32 c-77 52 -234 217 -294 308 -150 227 -198 428 -198 825 l1 180
172 -175 c96 -98 193 -207 220 -247z m-1193 -107 c0 -2 -9 -26 -21 -52 -85
-200 -107 -542 -49 -770 11 -42 19 -78 18 -80 -7 -6 -118 -48 -163 -61 -130
-36 -208 -43 -502 -43 l-293 0 0 293 c0 294 7 372 43 502 13 45 55 156 61 163
2 1 38 -7 80 -18 227 -58 576 -36 766 49 46 20 60 24 60 17z m1496 -17 c200
-85 542 -107 770 -49 42 11 78 19 80 18 6 -7 48 -118 61 -163 36 -130 43 -208
43 -502 l0 -293 -292 0 c-295 0 -373 7 -503 43 -45 13 -156 55 -163 61 -1 2 7
37 18 79 59 231 37 568 -49 771 -29 67 -32 64 35 35z m-746 -346 c83 -201 248
-406 443 -550 48 -36 87 -69 87 -73 0 -4 -24 -46 -52 -93 -66 -108 -154 -209
-352 -407 l-156 -155 -156 155 c-198 198 -286 299 -351 407 -29 47 -53 89 -53
93 0 4 39 37 88 73 194 144 359 349 442 550 13 31 27 57 30 57 3 0 17 -26 30
-57z"/>
</g>
</svg>
